<?xml version="1.0" standalone="no"?>
<!DOCTYPE svg PUBLIC "-//W3C//DTD SVG 20010904//EN"
 "http://www.w3.org/TR/2001/REC-SVG-20010904/DTD/svg10.dtd">
<svg version="1.0" xmlns="http://www.w3.org/2000/svg"
 width="5401.000000pt" height="5400.000000pt" viewBox="0 0 5401.000000 5400.000000"
 preserveAspectRatio="xMidYMid meet">

<g transform="translate(0.000000,5400.000000) scale(0.100000,-0.100000)"
fill="#000000" stroke="none">
<path d="M0 27000 l0 -27000 27005 0 27005 0 0 27000 0 27000 -27005 0 -27005
0 0 -27000z m27191 10540 c61 -943 113 -1717 115 -1719 2 -2 6 -2 7 0 2 2 453
564 1002 1249 549 685 1007 1254 1018 1265 19 19 19 18 -2 -16 -11 -20 -359
-603 -771 -1295 -413 -692 -749 -1261 -748 -1264 2 -4 701 145 1553 330 1447
315 1550 336 1553 318 2 -11 1 -22 -1 -25 -3 -2 -581 -220 -1284 -483 l-1278
-478 -3 -203 -2 -204 1282 -520 c1126 -457 1283 -523 1286 -543 2 -12 -1 -22
-6 -22 -9 0 -2504 643 -2543 655 -19 6 -19 -10 -19 -769 l0 -776 1245 0 1245
0 0 -1320 0 -1320 -1245 0 -1245 0 0 -2782 0 -2782 31 30 c17 16 866 908 1887
1982 l1857 1952 1267 0 1268 0 0 -4415 0 -4415 -215 0 -215 0 -2 3855 -3 3856
-833 -891 -832 -890 0 -2965 0 -2965 -208 0 -209 0 -6 1667 c-4 916 -7 2146
-7 2732 l0 1066 -69 -70 c-38 -39 -888 -947 -1890 -2018 l-1821 -1949 0 -996
c0 -1153 -9 -1469 -56 -1912 -100 -961 -338 -1696 -744 -2301 -204 -303 -502
-595 -828 -810 -608 -402 -1428 -624 -2547 -689 -234 -14 -875 -14 -1085 0
-405 26 -738 72 -1068 145 -356 80 -609 167 -907 315 -496 245 -866 566 -1151
1000 -331 505 -514 1064 -589 1795 -14 140 -35 515 -35 633 l0 52 1254 0 1254
0 7 -93 c27 -377 103 -604 284 -845 193 -255 482 -430 832 -501 338 -69 826
-88 1170 -45 498 61 858 233 1108 529 267 314 408 722 451 1300 6 85 10 591
10 1285 l0 1145 -1880 2010 c-1034 1106 -1885 2012 -1890 2013 -7 3 -10 -945
-10 -2727 l0 -2731 -212 0 -213 0 3 2962 3 2963 -833 892 c-458 490 -836 892
-840 892 -5 1 -8 -1734 -8 -3854 l0 -3855 -210 0 -210 0 0 4415 0 4415 1267
-2 1268 -3 1783 -1875 c981 -1031 1828 -1922 1882 -1980 l99 -105 1 2783 0
2782 -1240 0 -1240 0 0 1320 0 1320 1240 0 1240 0 0 780 c0 429 -3 780 -7 780
-5 0 -537 -127 -1183 -281 l-1175 -282 -60 12 c-33 7 -66 16 -73 20 -7 4 480
195 1140 446 634 241 1199 456 1256 478 l102 39 -2 206 -3 205 -1237 521
c-681 286 -1236 521 -1235 522 1 2 668 -157 1481 -352 814 -195 1481 -352
1483 -350 2 2 -330 617 -738 1367 -408 750 -744 1369 -747 1374 -2 6 19 -17
49 -49 397 -437 1083 -1354 1789 -2391 213 -313 189 -279 194 -274 2 2 77 789
167 1749 90 960 165 1734 166 1720 2 -14 53 -797 114 -1740z"/>
<path d="M26140 33975 l0 -1355 -1240 0 -1240 0 0 -895 0 -895 1240 0 1240 0
-3 -5922 c-2 -4535 -6 -5950 -15 -6038 -33 -310 -87 -578 -157 -778 -255 -729
-763 -1176 -1510 -1327 -224 -45 -338 -56 -642 -62 -621 -12 -1051 58 -1398
227 -360 175 -613 427 -799 798 -66 131 -103 244 -150 455 l-6 27 -840 0
c-462 0 -840 -4 -840 -8 0 -38 34 -353 50 -457 150 -1013 603 -1731 1359
-2154 648 -363 1682 -537 2856 -481 1701 82 2671 522 3246 1472 296 489 484
1112 574 1898 53 468 49 23 52 6437 l3 5913 1248 2 1247 3 0 890 0 890 -1247
3 -1248 2 0 1355 0 1355 -890 0 -890 0 0 -1355z"/>
<path d="M19833 28354 c-3 -9 0 -27 8 -39 18 -29 5852 -6253 5862 -6254 4 -1
7 491 7 1093 l0 1094 -1977 2061 -1977 2061 -958 0 c-876 0 -959 -1 -965 -16z"/>
<path d="M30328 26307 l-1977 -2062 -1 -1100 0 -1100 29 30 c16 17 1339 1427
2940 3135 2413 2573 2911 3110 2911 3133 l0 27 -962 -1 -963 0 -1977 -2062z"/>
</g>
</svg>
